<svg width="1745" height="3000" viewBox="0 0 1745 3000" fill="none" xmlns="http://www.w3.org/2000/svg">
<path fill-rule="evenodd" clip-rule="evenodd" d="M1220.97 216.115C1220.97 216.115 1106.29 468.432 1412.12 713.102C1717.95 957.773 1523.75 1288.95 1520.69 1283.49C1517.63 1278.03 1542.1 1109.82 1367.77 995.132C1193.45 880.443 1094.05 674.237 1094.05 570.016C1094.05 466.031 1090.99 363.72 1220.97 216.115Z" fill="black"/>
<path fill-rule="evenodd" clip-rule="evenodd" d="M1195.39 246.842C1195.39 246.842 1000.62 627.491 1303.94 861.104C1607.25 1094.72 1523.84 1289.67 1520.75 1284.39C1517.66 1279.11 1541.98 1108.63 1366.1 1005.32C1189.86 901.801 1102.91 703.813 1090.92 594.772C1088.81 575.664 1064.17 383.884 1193.33 249.253" fill="black"/>
<path fill-rule="evenodd" clip-rule="evenodd" d="M891.9 0C891.9 0 142.582 509.359 833.164 1103.96C1440.74 1627.09 1769.62 1720.68 1743.16 2261.31C1715.76 2821.13 969.39 3223.35 431.796 2862.56C102.685 2641.68 21.5948 2349.53 4.90866 2187.95C-5.66155 2085.59 3.15782 2146.69 9.72625 2184.42C39.9982 2358.31 174.5 2640.82 480.778 2758.62C853.511 2901.98 1227.79 2757.79 1309.87 2565.08C1398.77 2356.38 1176.18 2038.65 655.198 1704.91C121.504 1363.03 146.272 914.797 172.555 761.879C198.838 608.959 234.678 396.486 559.625 171.706C790.822 11.7777 891.902 0.00440508 891.902 0.00440508L891.9 0Z" fill="black"/>
<path fill-rule="evenodd" clip-rule="evenodd" d="M478.548 279.552C478.548 279.552 -120.548 884.916 599.213 1443.84C1001.9 1756.54 1156.76 1843.48 1266.99 1952.86C1310.09 1995.62 1373.71 2070.7 1402.85 2163.3C1438.37 2276.17 1439.28 2325.75 1402.85 2411.63C1379.9 2465.72 1291.55 2601.92 1291.55 2601.92C1291.55 2601.92 1304.87 2576.83 1309.87 2565.08C1398.76 2356.38 1176.18 2038.65 655.195 1704.91C121.501 1363.03 146.269 914.796 172.552 761.878C198.835 608.959 234.133 369.186 569.18 159.757C622.245 126.588 655.196 114.674 655.196 114.674L478.55 279.556L478.548 279.552Z" fill="black"/>
</svg>
