<svg width="179" height="48" viewBox="0 0 179 48" fill="none" xmlns="http://www.w3.org/2000/svg">
<g clip-path="url(#clip0_4_1180)">
<path d="M178.869 24.0977C178.899 24.0977 178.939 24.1062 179 24.1317C178.894 24.0913 178.789 24.0446 178.683 24.0021C178.789 23.9596 178.894 23.9129 179 23.8725C178.939 23.8959 178.899 23.9044 178.869 23.9065C178.913 23.8959 178.956 23.8832 179 23.8725H178.367C170.141 20.3426 162.474 9.76352 156.245 3.55326C113.19 3.47255 134.706 3.31538 90.8446 3.2368C89.9707 3.02441 89.5021 2.82901 89.5 2.67609C89.5 2.82901 89.0293 3.02653 88.1554 3.2368C44.292 3.31538 65.8078 3.47255 22.755 3.55326C16.5258 9.7614 8.85923 20.3405 0.633255 23.8704H0C0.0443278 23.881 0.0865448 23.8938 0.130873 23.9044C0.101321 23.9044 0.0612146 23.8959 0 23.8704C0.105542 23.9108 0.211085 23.9575 0.316627 24C0.211085 24.0425 0.105542 24.0892 0 24.1295C0.0612146 24.1062 0.101321 24.0977 0.130873 24.0956C0.0865448 24.1062 0.0443278 24.1189 0 24.1295H0.633255C8.85923 27.6595 16.5258 38.2386 22.755 44.4488C65.8099 44.5295 44.2941 44.6867 88.1554 44.7653C89.0293 44.9777 89.4979 45.1731 89.5 45.326C89.5 45.1731 89.9707 44.9756 90.8446 44.7653C134.708 44.6867 113.192 44.5295 156.245 44.4488C162.476 38.2386 170.141 27.6595 178.367 24.1295H179C178.956 24.1189 178.913 24.1062 178.869 24.0956V24.0977ZM156.188 3.68069C160.3 7.86051 163.88 12.2527 167.534 15.9313C170.96 19.3805 174.453 22.1925 178.196 23.8704H178.023C171.608 21.9993 168.049 17.1972 162.335 11.5986L155.81 4.56211H101.625C99.2479 4.40919 97.1455 4.20742 95.3872 3.99078C134.429 3.90795 113.114 3.76565 156.19 3.68069H156.188ZM11.4661 15.9313C15.12 12.2527 18.7 7.86051 22.8119 3.68069C65.888 3.76565 44.5727 3.90582 83.615 3.99078C81.8566 4.20742 79.7542 4.40919 77.3774 4.56423H23.1898L16.6652 11.5986C10.9511 17.195 7.39219 21.9993 0.977323 23.8704H0.804234C4.54677 22.1947 8.04022 19.3826 11.4661 15.9313ZM22.8119 44.3193C18.7 40.1395 15.12 35.7472 11.4661 32.0687C8.04022 28.6194 4.54677 25.8074 0.804234 24.1295H0.977323C7.39219 26.0007 10.9511 30.8028 16.6652 36.4014L23.1898 43.4379H77.3753C79.7521 43.5908 81.8545 43.7925 83.6128 44.0092C44.5706 44.092 65.8859 44.2343 22.8098 44.3193H22.8119ZM23.9328 41.7111L7.51251 24L23.9328 6.28883H155.065L171.485 24L155.065 41.7111H23.9328ZM167.534 32.0687C163.88 35.7472 160.3 40.1395 156.188 44.3193C113.112 44.2343 134.427 44.0941 95.385 44.0092C97.1434 43.7925 99.2458 43.5908 101.623 43.4357H155.808L162.333 36.4014C168.047 30.8049 171.606 26.0007 178.021 24.1295H178.194C174.451 25.8053 170.958 28.6173 167.532 32.0687H167.534Z" fill="url(#paint0_linear_4_1180)"/>
<path d="M23.9328 41.7111L7.51251 24L23.9328 6.28883H155.065L171.485 24L155.065 41.7111H23.9328Z" fill="url(#paint1_linear_4_1180)"/>
<path d="M178.869 24.0977C178.899 24.0977 178.939 24.1062 179 24.1317C178.894 24.0913 178.789 24.0446 178.683 24.0021C178.789 23.9596 178.894 23.9129 179 23.8726C178.939 23.8959 178.899 23.9044 178.869 23.9065C178.913 23.8959 178.956 23.8832 179 23.8726H178.367C170.141 20.3427 162.474 9.76354 156.245 3.55327C113.19 3.47257 134.706 3.3154 90.8446 3.23681C89.9707 3.02442 89.5021 2.82903 89.5 2.67611C89.5 2.82903 89.0293 3.02655 88.1554 3.23681C44.292 3.3154 65.8078 3.47257 22.755 3.55327C16.5258 9.76141 8.85923 20.3405 0.633255 23.8704H0C0.0443278 23.8811 0.0865448 23.8938 0.130873 23.9044C0.101321 23.9044 0.0612146 23.8959 0 23.8704C0.105542 23.9108 0.211085 23.9575 0.316627 24C0.211085 24.0425 0.105542 24.0892 0 24.1296C0.0612146 24.1062 0.101321 24.0977 0.130873 24.0956C0.0865448 24.1062 0.0443278 24.1189 0 24.1296H0.633255C8.85923 27.6595 16.5258 38.2386 22.755 44.4488C65.8099 44.5296 44.2941 44.6867 88.1554 44.7653C89.0293 44.9777 89.4979 45.1731 89.5 45.326C89.5 45.1731 89.9707 44.9756 90.8446 44.7653C134.708 44.6867 113.192 44.5296 156.245 44.4488C162.476 38.2386 170.141 27.6595 178.367 24.1296H179C178.956 24.1189 178.913 24.1062 178.869 24.0956V24.0977ZM156.188 3.68071C160.3 7.86053 163.88 12.2527 167.534 15.9313C170.96 19.3805 174.453 22.1926 178.196 23.8704H178.023C171.608 21.9993 168.049 17.1972 162.335 11.5986L155.81 4.56212H101.625C99.2479 4.4092 97.1455 4.20743 95.3872 3.9908C134.429 3.90796 113.114 3.76566 156.19 3.68071H156.188ZM11.4661 15.9313C15.12 12.2527 18.7 7.86053 22.8119 3.68071C65.888 3.76566 44.5727 3.90584 83.615 3.9908C81.8566 4.20743 79.7542 4.4092 77.3774 4.56425H23.1898L16.6652 11.5986C10.9511 17.195 7.39219 21.9993 0.977323 23.8704H0.804234C4.54677 22.1947 8.04022 19.3827 11.4661 15.9313ZM22.8119 44.3193C18.7 40.1395 15.12 35.7473 11.4661 32.0687C8.04022 28.6195 4.54677 25.8074 0.804234 24.1296H0.977323C7.39219 26.0007 10.9511 30.8028 16.6652 36.4014L23.1898 43.4379H77.3753C79.7521 43.5908 81.8545 43.7926 83.6128 44.0092C44.5706 44.092 65.8859 44.2343 22.8098 44.3193H22.8119ZM23.9328 41.7111L7.51251 24L23.9328 6.28885H155.065L171.485 24L155.065 41.7111H23.9328ZM167.534 32.0687C163.88 35.7473 160.3 40.1395 156.188 44.3193C113.112 44.2343 134.427 44.0942 95.385 44.0092C97.1434 43.7926 99.2458 43.5908 101.623 43.4357H155.808L162.333 36.4014C168.047 30.805 171.606 26.0007 178.021 24.1296H178.194C174.451 25.8053 170.958 28.6173 167.532 32.0687H167.534Z" fill="url(#paint2_linear_4_1180)"/>
<path d="M89.4999 2.26195C89.7152 1.89026 90.3422 1.60354 90.3422 1.60354C90.3422 1.60354 89.4999 0.193273 89.4999 -0.00212479C89.4999 0.193273 88.6577 1.60354 88.6577 1.60354C88.6577 1.60354 89.2846 1.88814 89.4999 2.26195Z" fill="url(#paint3_linear_4_1180)"/>
<path d="M89.4999 45.7381C89.2846 46.1097 88.6577 46.3965 88.6577 46.3965C88.6577 46.3965 89.4999 47.8067 89.4999 48.0021C89.4999 47.8067 90.3422 46.3965 90.3422 46.3965C90.3422 46.3965 89.7152 46.1119 89.4999 45.7381Z" fill="url(#paint4_linear_4_1180)"/>
</g>
<defs>
<linearGradient id="paint0_linear_4_1180" x1="89.5" y1="45.326" x2="89.5" y2="2.67609" gradientUnits="userSpaceOnUse">
<stop stop-color="#824C16"/>
<stop offset="0.5" stop-color="#965A19"/>
<stop offset="1" stop-color="#A66618"/>
</linearGradient>
<linearGradient id="paint1_linear_4_1180" x1="89.5" y1="45.326" x2="89.5" y2="2.67609" gradientUnits="userSpaceOnUse">
<stop stop-color="#824C16"/>
<stop offset="0.5" stop-color="#965A19"/>
<stop offset="1" stop-color="#A66618"/>
</linearGradient>
<linearGradient id="paint2_linear_4_1180" x1="0" y1="24.0011" x2="179" y2="24.0011" gradientUnits="userSpaceOnUse">
<stop stop-color="#BAA074"/>
<stop offset="0.5" stop-color="#C3B58D"/>
<stop offset="1" stop-color="#D7C397"/>
</linearGradient>
<linearGradient id="paint3_linear_4_1180" x1="88.6577" y1="1.12991" x2="90.3422" y2="1.12991" gradientUnits="userSpaceOnUse">
<stop stop-color="#BAA074"/>
<stop offset="0.5" stop-color="#C3B58D"/>
<stop offset="1" stop-color="#D7C397"/>
</linearGradient>
<linearGradient id="paint4_linear_4_1180" x1="88.6577" y1="46.8701" x2="90.3422" y2="46.8701" gradientUnits="userSpaceOnUse">
<stop stop-color="#BAA074"/>
<stop offset="0.5" stop-color="#C3B58D"/>
<stop offset="1" stop-color="#D7C397"/>
</linearGradient>
<clipPath id="clip0_4_1180">
<rect width="179" height="48" fill="white"/>
</clipPath>
</defs>
</svg>
