<svg width="290" height="76" viewBox="0 0 290 76" fill="none" xmlns="http://www.w3.org/2000/svg">
<g clip-path="url(#clip0_4_1096)">
<path d="M289.788 37.886C289.836 37.886 289.901 37.8993 290 37.9394C289.829 37.8759 289.658 37.8025 289.487 37.7357C289.658 37.6689 289.829 37.5955 290 37.532C289.901 37.5687 289.836 37.5821 289.788 37.5854C289.86 37.5687 289.928 37.5487 290 37.532H288.974C275.647 31.9824 263.226 15.3502 253.134 5.58658C183.381 5.45969 218.239 5.2126 147.178 5.08905C145.763 4.75514 145.003 4.44794 145 4.20752C145 4.44794 144.237 4.75848 142.822 5.08905C71.7579 5.2126 106.616 5.45969 36.8656 5.58658C26.7737 15.3468 14.3529 31.979 1.02594 37.5287H0C0.071816 37.5454 0.140212 37.5654 0.212028 37.5821C0.164151 37.5821 0.0991745 37.5687 0 37.5287C0.170991 37.5921 0.341981 37.6656 0.512972 37.7324C0.341981 37.7991 0.170991 37.8726 0 37.9361C0.0991745 37.8993 0.164151 37.886 0.212028 37.8826C0.140212 37.8993 0.071816 37.9194 0 37.9361H1.02594C14.3529 43.4857 26.7737 60.1179 36.8656 69.8815C106.619 70.0084 71.7613 70.2555 142.822 70.379C144.237 70.7129 144.997 71.0201 145 71.2605C145 71.0201 145.763 70.7096 147.178 70.379C218.242 70.2555 183.384 70.0084 253.134 69.8815C263.23 60.1179 275.647 43.4857 288.974 37.9361H290C289.928 37.9194 289.86 37.8993 289.788 37.8826V37.886ZM253.042 5.78693C259.704 12.3583 265.504 19.2636 271.424 25.047C276.974 30.4698 282.634 34.8908 288.697 37.5287H288.417C278.024 34.5869 272.258 27.0371 263.001 18.2352L252.43 7.17266H164.643C160.793 6.93225 157.387 6.61503 154.538 6.27444C217.791 6.14421 183.257 5.92049 253.046 5.78693H253.042ZM18.5764 25.047C24.4961 19.2636 30.2961 12.3583 36.9579 5.78693C106.746 5.92049 72.2127 6.14087 135.466 6.27444C132.617 6.61503 129.211 6.93225 125.36 7.176H37.57L26.9994 18.2352C17.742 27.0338 11.9762 34.5869 1.58337 37.5287H1.30295C7.36627 34.8941 13.0261 30.4731 18.5764 25.047ZM36.9579 69.6778C30.2961 63.1064 24.4961 56.2011 18.5764 50.4177C13.0261 44.995 7.36627 40.574 1.30295 37.9361H1.58337C11.9762 40.8778 17.742 48.4276 26.9994 57.2295L37.57 68.2921H125.357C129.207 68.5325 132.613 68.8497 135.462 69.1903C72.2093 69.3205 106.743 69.5442 36.9545 69.6778H36.9579ZM38.7738 65.5773L12.1711 37.7324L38.7738 9.88738H251.223L277.826 37.7324L251.223 65.5773H38.7738ZM271.424 50.4177C265.504 56.2011 259.704 63.1064 253.042 69.6778C183.254 69.5442 217.787 69.3239 154.534 69.1903C157.383 68.8497 160.789 68.5325 164.64 68.2887H252.427L262.997 57.2295C272.255 48.4309 278.02 40.8778 288.413 37.9361H288.694C282.63 40.5706 276.971 44.9916 271.42 50.4177H271.424Z" fill="url(#paint0_linear_4_1096)" stroke="url(#paint0_linear_4_1096)" stroke-width="2"/>
<path d="M145 3.55634C145.349 2.97199 146.365 2.52121 146.365 2.52121C146.365 2.52121 145 0.304026 145 -0.00317383C145 0.304026 143.636 2.52121 143.636 2.52121C143.636 2.52121 144.651 2.96865 145 3.55634Z" fill="url(#paint1_linear_4_1096)" stroke="url(#paint1_linear_4_1096)" stroke-width="2"/>
<path d="M145 71.9082C144.651 72.4926 143.636 72.9433 143.636 72.9433C143.636 72.9433 145 75.1605 145 75.4677C145 75.1605 146.365 72.9433 146.365 72.9433C146.365 72.9433 145.349 72.4959 145 71.9082Z" fill="url(#paint2_linear_4_1096)" stroke="url(#paint2_linear_4_1096)" stroke-width="2"/>
</g>
<defs>
<linearGradient id="paint0_linear_4_1096" x1="0" y1="37.734" x2="290" y2="37.734" gradientUnits="userSpaceOnUse">
<stop stop-color="#BAA074"/>
<stop offset="0.5" stop-color="#C3B58D"/>
<stop offset="1" stop-color="#D7C397"/>
</linearGradient>
<linearGradient id="paint1_linear_4_1096" x1="143.636" y1="1.77658" x2="146.365" y2="1.77658" gradientUnits="userSpaceOnUse">
<stop stop-color="#BAA074"/>
<stop offset="0.5" stop-color="#C3B58D"/>
<stop offset="1" stop-color="#D7C397"/>
</linearGradient>
<linearGradient id="paint2_linear_4_1096" x1="143.636" y1="73.688" x2="146.365" y2="73.688" gradientUnits="userSpaceOnUse">
<stop stop-color="#BAA074"/>
<stop offset="0.5" stop-color="#C3B58D"/>
<stop offset="1" stop-color="#D7C397"/>
</linearGradient>
<clipPath id="clip0_4_1096">
<rect width="290" height="75.4643" fill="white"/>
</clipPath>
</defs>
</svg>