<svg width="289" height="76" viewBox="0 0 289 76" fill="none" xmlns="http://www.w3.org/2000/svg">
<g clip-path="url(#clip0_4_1090)">
<path d="M288.789 37.886C288.836 37.886 288.901 37.8993 289 37.9394C288.83 37.8759 288.659 37.8025 288.489 37.7357C288.659 37.6689 288.83 37.5955 289 37.532C288.901 37.5687 288.836 37.5821 288.789 37.5854C288.86 37.5687 288.928 37.5487 289 37.532H287.978C274.697 31.9824 262.319 15.3502 252.262 5.58658C182.748 5.45969 217.486 5.2126 146.671 5.08905C145.26 4.75514 144.503 4.44794 144.5 4.20752C144.5 4.44794 143.74 4.75848 142.329 5.08905C71.5105 5.2126 106.248 5.45969 36.7384 5.58658C26.6814 15.3468 14.3035 31.979 1.02241 37.5287H0C0.0715684 37.5454 0.139729 37.5654 0.211297 37.5821C0.163585 37.5821 0.0988325 37.5687 0 37.5287C0.170401 37.5921 0.340802 37.6656 0.511203 37.7324C0.340802 37.7991 0.170401 37.8726 0 37.9361C0.0988325 37.8993 0.163585 37.886 0.211297 37.8826C0.139729 37.8993 0.0715684 37.9194 0 37.9361H1.02241C14.3035 43.4857 26.6814 60.1179 36.7384 69.8815C106.252 70.0084 71.5139 70.2555 142.329 70.379C143.74 70.7129 144.497 71.0201 144.5 71.2605C144.5 71.0201 145.26 70.7096 146.671 70.379C217.49 70.2555 182.752 70.0084 252.262 69.8815C262.322 60.1179 274.697 43.4857 287.978 37.9361H289C288.928 37.9194 288.86 37.8993 288.789 37.8826V37.886ZM252.17 5.78693C258.808 12.3583 264.588 19.2636 270.488 25.047C276.019 30.4698 281.659 34.8908 287.702 37.5287H287.422C277.065 34.5869 271.319 27.0371 262.094 18.2352L251.56 7.17266H164.076C160.238 6.93225 156.844 6.61503 154.005 6.27444C217.04 6.14421 182.626 5.92049 252.173 5.78693H252.17ZM18.5124 25.047C24.4116 19.2636 30.1916 12.3583 36.8305 5.78693C106.378 5.92049 71.9637 6.14087 134.998 6.27444C132.16 6.61503 128.765 6.93225 124.928 7.176H37.4405L26.9063 18.2352C17.6808 27.0338 11.9349 34.5869 1.57791 37.5287H1.29846C7.34087 34.8941 12.9811 30.4731 18.5124 25.047ZM36.8305 69.6778C30.1916 63.1064 24.4116 56.2011 18.5124 50.4177C12.9811 44.995 7.34087 40.574 1.29846 37.9361H1.57791C11.9349 40.8778 17.6808 48.4276 26.9063 57.2295L37.4405 68.2921H124.924C128.762 68.5325 132.156 68.8497 134.995 69.1903C71.9603 69.3205 106.374 69.5442 36.8271 69.6778H36.8305ZM38.6401 65.5773L12.1291 37.7324L38.6401 9.88738H250.356L276.867 37.7324L250.356 65.5773H38.6401ZM270.488 50.4177C264.588 56.2011 258.808 63.1064 252.17 69.6778C182.622 69.5442 217.036 69.3239 154.002 69.1903C156.84 68.8497 160.235 68.5325 164.072 68.2887H251.556L262.09 57.2295C271.316 48.4309 277.062 40.8778 287.419 37.9361H287.698C281.656 40.5706 276.015 44.9916 270.484 50.4177H270.488Z" fill="url(#paint0_linear_4_1090)"/>
<path d="M38.6401 65.5773L12.1291 37.7324L38.6401 9.88738H250.356L276.867 37.7324L250.356 65.5773H38.6401Z" fill="url(#paint1_linear_4_1090)"/>
<path d="M288.789 37.886C288.836 37.886 288.901 37.8993 289 37.9394C288.83 37.8759 288.659 37.8025 288.489 37.7357C288.659 37.6689 288.83 37.5955 289 37.532C288.901 37.5687 288.836 37.5821 288.789 37.5854C288.86 37.5687 288.928 37.5487 289 37.532H287.978C274.697 31.9824 262.319 15.3502 252.262 5.58658C182.748 5.45969 217.486 5.2126 146.671 5.08905C145.26 4.75514 144.503 4.44794 144.5 4.20752C144.5 4.44794 143.74 4.75848 142.329 5.08905C71.5105 5.2126 106.248 5.45969 36.7384 5.58658C26.6814 15.3468 14.3035 31.979 1.02241 37.5287H0C0.0715684 37.5454 0.139729 37.5654 0.211297 37.5821C0.163585 37.5821 0.0988325 37.5687 0 37.5287C0.170401 37.5921 0.340802 37.6656 0.511203 37.7324C0.340802 37.7991 0.170401 37.8726 0 37.9361C0.0988325 37.8993 0.163585 37.886 0.211297 37.8826C0.139729 37.8993 0.0715684 37.9194 0 37.9361H1.02241C14.3035 43.4857 26.6814 60.1179 36.7384 69.8815C106.252 70.0084 71.5139 70.2555 142.329 70.379C143.74 70.7129 144.497 71.0201 144.5 71.2605C144.5 71.0201 145.26 70.7096 146.671 70.379C217.49 70.2555 182.752 70.0084 252.262 69.8815C262.322 60.1179 274.697 43.4857 287.978 37.9361H289C288.928 37.9194 288.86 37.8993 288.789 37.8826V37.886ZM252.17 5.78693C258.808 12.3583 264.588 19.2636 270.488 25.047C276.019 30.4698 281.659 34.8908 287.702 37.5287H287.422C277.065 34.5869 271.319 27.0371 262.094 18.2352L251.56 7.17266H164.076C160.238 6.93225 156.844 6.61503 154.005 6.27444C217.04 6.14421 182.626 5.92049 252.173 5.78693H252.17ZM18.5124 25.047C24.4116 19.2636 30.1916 12.3583 36.8305 5.78693C106.378 5.92049 71.9637 6.14087 134.998 6.27444C132.16 6.61503 128.765 6.93225 124.928 7.176H37.4405L26.9063 18.2352C17.6808 27.0338 11.9349 34.5869 1.57791 37.5287H1.29846C7.34087 34.8941 12.9811 30.4731 18.5124 25.047ZM36.8305 69.6778C30.1916 63.1064 24.4116 56.2011 18.5124 50.4177C12.9811 44.995 7.34087 40.574 1.29846 37.9361H1.57791C11.9349 40.8778 17.6808 48.4276 26.9063 57.2295L37.4405 68.2921H124.924C128.762 68.5325 132.156 68.8497 134.995 69.1903C71.9603 69.3205 106.374 69.5442 36.8271 69.6778H36.8305ZM38.6401 65.5773L12.1291 37.7324L38.6401 9.88738H250.356L276.867 37.7324L250.356 65.5773H38.6401ZM270.488 50.4177C264.588 56.2011 258.808 63.1064 252.17 69.6778C182.622 69.5442 217.036 69.3239 154.002 69.1903C156.84 68.8497 160.235 68.5325 164.072 68.2887H251.556L262.09 57.2295C271.316 48.4309 277.062 40.8778 287.419 37.9361H287.698C281.656 40.5706 276.015 44.9916 270.484 50.4177H270.488Z" fill="url(#paint2_linear_4_1090)"/>
<path d="M144.5 3.55634C144.848 2.97199 145.86 2.52121 145.86 2.52121C145.86 2.52121 144.5 0.304026 144.5 -0.00317383C144.5 0.304026 143.14 2.52121 143.14 2.52121C143.14 2.52121 144.152 2.96865 144.5 3.55634Z" fill="url(#paint3_linear_4_1090)"/>
<path d="M144.5 71.9082C144.152 72.4926 143.14 72.9433 143.14 72.9433C143.14 72.9433 144.5 75.1605 144.5 75.4677C144.5 75.1605 145.86 72.9433 145.86 72.9433C145.86 72.9433 144.848 72.4959 144.5 71.9082Z" fill="url(#paint4_linear_4_1090)"/>
</g>
<defs>
<linearGradient id="paint0_linear_4_1090" x1="0" y1="37.734" x2="289" y2="37.734" gradientUnits="userSpaceOnUse">
<stop stop-color="#564636"/>
<stop offset="0.5" stop-color="#4E4031"/>
<stop offset="1" stop-color="#4A3D2D"/>
</linearGradient>
<linearGradient id="paint1_linear_4_1090" x1="0" y1="37.734" x2="289" y2="37.734" gradientUnits="userSpaceOnUse">
<stop stop-color="#564636"/>
<stop offset="0.5" stop-color="#4E4031"/>
<stop offset="1" stop-color="#4A3D2D"/>
</linearGradient>
<linearGradient id="paint2_linear_4_1090" x1="0" y1="37.734" x2="289" y2="37.734" gradientUnits="userSpaceOnUse">
<stop stop-color="#BAA074"/>
<stop offset="0.5" stop-color="#C3B58D"/>
<stop offset="1" stop-color="#D7C397"/>
</linearGradient>
<linearGradient id="paint3_linear_4_1090" x1="143.14" y1="1.77658" x2="145.86" y2="1.77658" gradientUnits="userSpaceOnUse">
<stop stop-color="#BAA074"/>
<stop offset="0.5" stop-color="#C3B58D"/>
<stop offset="1" stop-color="#D7C397"/>
</linearGradient>
<linearGradient id="paint4_linear_4_1090" x1="143.14" y1="73.688" x2="145.86" y2="73.688" gradientUnits="userSpaceOnUse">
<stop stop-color="#BAA074"/>
<stop offset="0.5" stop-color="#C3B58D"/>
<stop offset="1" stop-color="#D7C397"/>
</linearGradient>
<clipPath id="clip0_4_1090">
<rect width="289" height="75.4643" fill="white"/>
</clipPath>
</defs>
</svg>
