<svg width="350" height="320" viewBox="0 0 350 320" fill="none" xmlns="http://www.w3.org/2000/svg">
<g clip-path="url(#clip0_4_1045)">
<path d="M8.0625 189.269C8.0625 189.269 8.38657 188.603 8.91073 188.503V169.417C8.6402 169.482 8.36403 173.111 8.0625 173.144V189.269Z" fill="url(#paint0_linear_4_1045)"/>
<path d="M22.0654 291.995L28.4116 287.56C29.305 284.89 29.2373 282.896 31.7341 279.728C29.2345 282.899 27.6649 282.81 25.5626 283.945L22.0654 291.998V291.995Z" fill="url(#paint1_linear_4_1045)"/>
<path d="M8.91073 150.583V131.497C8.38657 131.397 8.0625 130.731 8.0625 130.731V146.856C8.36121 146.889 8.6402 150.522 8.91073 150.583Z" fill="url(#paint2_linear_4_1045)"/>
<path d="M22.0654 28.0054L25.5626 36.0591C27.6677 37.1937 29.2373 37.1043 31.7341 40.2756C29.2373 37.1043 29.305 35.1141 28.4116 32.4403L22.0654 28.0054Z" fill="url(#paint3_linear_4_1045)"/>
<path d="M341.089 169.417V188.503C341.614 188.603 341.938 189.269 341.938 189.269V173.144C341.639 173.111 341.36 169.478 341.089 169.417Z" fill="url(#paint4_linear_4_1045)"/>
<path d="M327.935 291.995L324.438 283.941C322.333 282.806 320.763 282.896 318.266 279.724C320.763 282.896 320.695 284.886 321.589 287.556L327.935 291.991V291.995Z" fill="url(#paint5_linear_4_1045)"/>
<path d="M341.938 130.731C341.938 130.731 341.614 131.397 341.089 131.497V150.583C341.36 150.518 341.636 146.889 341.938 146.856V130.731Z" fill="url(#paint6_linear_4_1045)"/>
<path d="M342.476 292.66V282.37C342.476 278.081 344.502 274.52 346.427 272.54C344.4 274.191 342.425 272.276 342.425 268.782V209.278C342.425 209.278 342.247 211.948 341.092 212.381V222.858C340.917 227.164 338.288 232.566 336.623 235.422V84.5781C338.288 87.4309 340.917 92.8322 341.092 97.1418V107.619C342.247 108.055 342.425 110.722 342.425 110.722V51.2179C342.425 47.7208 344.4 45.8094 346.427 47.4595C344.505 45.4801 342.476 41.9186 342.476 37.6304V27.3396C342.476 21.2045 345.167 13.881 350 12.2989C344.958 12.034 340.517 6.4 340.309 0C339.06 6.13512 333.292 9.54989 328.456 9.54989H320.346C316.967 9.54989 314.16 6.97629 312.602 4.53512C313.901 7.10873 312.393 9.61432 309.64 9.61432H262.754C262.754 9.61432 264.859 9.83982 265.2 11.3074H273.459C276.852 11.5329 281.107 14.8689 283.353 16.9808H66.6436C68.8924 14.8689 73.1448 11.5329 76.5377 11.3074H84.7974C85.1384 9.83982 87.2435 9.61432 87.2435 9.61432H40.357C37.6009 9.61432 36.0933 7.10873 37.3952 4.53512C35.8368 6.97629 33.0301 9.54989 29.6513 9.54989H21.541C16.708 9.54989 10.9367 6.13512 9.68829 0C9.47976 6.4 5.03854 12.034 -0.00292969 12.2989C4.83 13.881 7.52123 21.2045 7.52123 27.3396V37.6304C7.52123 41.9186 5.49506 45.4801 3.57034 47.4595C5.59651 45.8094 7.57195 47.7244 7.57195 51.2179V110.722C7.57195 110.722 7.74949 108.052 8.90488 107.619V97.1418C9.0796 92.8358 11.7088 87.4344 13.3743 84.5781V235.422C11.7088 232.569 9.0796 227.168 8.90488 222.858V212.381C7.74949 211.945 7.57195 209.278 7.57195 209.278V268.782C7.57195 272.279 5.59651 274.191 3.57034 272.54C5.49224 274.52 7.52123 278.081 7.52123 282.37V292.66C7.52123 298.796 4.83 306.119 -0.00292969 307.701C5.03854 307.966 9.47976 313.6 9.68829 320C10.9367 313.865 16.7052 310.45 21.541 310.45H29.6513C33.0301 310.45 35.8368 313.024 37.3952 315.465C36.0961 312.891 37.6038 310.386 40.357 310.386H87.2435C87.2435 310.386 85.1384 310.16 84.7974 308.693H76.5377C73.1448 308.467 68.8896 305.131 66.6436 303.019H283.356C281.107 305.131 276.855 308.467 273.462 308.693H265.202C264.861 310.16 262.756 310.386 262.756 310.386H309.643C312.399 310.386 313.907 312.891 312.605 315.465C314.163 313.024 316.97 310.45 320.349 310.45H328.459C333.292 310.45 339.063 313.865 340.311 320C340.52 313.6 344.961 307.966 350.003 307.701C345.17 306.119 342.479 298.796 342.479 292.66H342.476ZM341.089 91.2286C339.728 87.2233 337.601 83.5221 336.62 82.0904V30.0385C336.848 28.0304 339.201 23.8998 341.089 21.6877V91.2286ZM334.757 11.3074H338.638C339.99 11.3074 341.089 12.6998 341.089 14.4179V19.3432C339.886 20.4385 337.947 23.0944 336.62 25.7253V21.4085C337.043 19.5329 338.567 14.5074 338.567 14.5074C338.567 14.5074 334.608 16.4438 333.131 16.9808H329.727C331.801 15.2949 333.895 12.8358 334.757 11.3074ZM278.117 11.3074H332.914C331.17 13.7056 327.915 16.6908 326.334 16.9808H285.318C284.19 15.7351 281.274 13.0362 278.117 11.3074ZM71.8823 11.3074C68.7261 13.0362 65.8095 15.7351 64.6823 16.9808H23.6658C22.082 16.6908 18.83 13.7056 17.0856 11.3074H71.8823ZM8.91052 16.9808V14.4179C8.91052 12.6998 10.0096 11.3074 11.3622 11.3074H15.2426C16.105 12.8358 18.1988 15.2949 20.2728 16.9808H16.8686C15.392 16.4474 11.4327 14.5074 11.4327 14.5074C11.4327 14.5074 12.96 19.5329 13.3799 21.4085V25.7253C12.0526 23.0908 10.1138 20.4385 8.91052 19.3432V16.9808ZM8.91052 91.2286V21.6877C10.7986 23.8998 13.1517 28.0304 13.3799 30.0385V82.0904C12.3992 83.5221 10.2716 87.2197 8.91052 91.2286ZM8.91052 228.771C10.2716 232.777 12.3992 236.478 13.3799 237.91V289.962C13.1517 291.97 10.7986 296.1 8.91052 298.312V228.771ZM15.2426 308.693H11.3622C10.0096 308.693 8.91052 307.3 8.91052 305.582V300.657C10.1138 299.562 12.0526 296.906 13.3799 294.275V298.591C12.9572 300.467 11.4327 305.493 11.4327 305.493C11.4327 305.493 15.392 303.556 16.8686 303.019H20.2728C18.1988 304.705 16.105 307.164 15.2426 308.693ZM71.8823 308.693H17.0856C18.83 306.294 22.0848 303.309 23.6658 303.019H64.6823C65.8095 304.265 68.7261 306.964 71.8823 308.693ZM52.576 301.28C48.3658 301.28 47.3767 298.642 46.9624 294.486C45.4435 297.822 42.4649 299.823 39.3058 300.517C39.4355 300.517 28.3014 302.532 25.2326 301.609C24.8071 301.48 24.3026 301.194 23.7531 300.796H17.9C18.706 298.42 20.0389 294.872 20.9717 293.383C19.7994 294.568 17.0067 296.258 15.1327 297.281V289.854C14.8171 289.156 14.5917 288.519 14.493 287.975C13.766 284.084 15.3525 269.949 15.3525 270.117C15.8992 266.112 17.4773 262.328 20.1066 260.403C16.832 259.877 14.7523 258.62 14.7523 253.28V66.7204C14.7523 61.3763 16.832 60.1235 20.1066 59.5973C17.4773 57.668 15.8992 53.8881 15.3525 49.8828C15.3525 50.0474 13.7632 35.9159 14.493 32.0251C14.5945 31.4846 14.8199 30.8438 15.1327 30.1459V22.7186C17.0067 23.7423 19.7994 25.4318 20.9717 26.6166C20.0389 25.1275 18.706 21.5803 17.9 19.2036H23.7531C24.3026 18.8027 24.8071 18.5199 25.2326 18.3911C28.2986 17.4676 39.4355 19.4828 39.3058 19.4828C42.462 20.1772 45.4435 22.1817 46.9624 25.5141C47.3795 21.3584 48.3658 18.7204 52.576 18.7204H297.427C301.637 18.7204 302.626 21.3584 303.04 25.5141C304.559 22.1781 307.538 20.1772 310.697 19.4828C310.567 19.4828 310.435 19.4828 310.305 19.4828C310.305 19.4828 321.701 17.4711 324.767 18.3946C325.193 18.5235 325.697 18.8098 326.247 19.2072H332.1C331.294 21.5839 329.961 25.1311 329.028 26.6201C330.2 25.4353 332.993 23.7459 334.867 22.7221V30.1494C335.183 30.8474 335.408 31.4846 335.51 32.0286C336.237 35.9195 334.653 50.3839 334.653 50.3839C334.653 50.2192 334.653 50.0546 334.653 49.8864C334.106 53.8917 332.528 57.6752 329.899 59.6009C333.173 60.1271 335.253 61.3834 335.253 66.7239V253.28C335.253 258.624 333.173 259.877 329.899 260.403C332.528 262.332 334.106 266.112 334.653 270.117C334.653 269.953 336.242 284.084 335.512 287.975C335.411 288.515 335.186 289.156 334.87 289.854V297.281C332.996 296.258 330.203 294.568 329.031 293.383C329.964 294.872 331.297 298.42 332.103 300.796H326.249C325.7 301.197 325.196 301.48 324.77 301.609C321.704 302.532 310.567 300.517 310.697 300.517C307.541 299.823 304.559 297.818 303.04 294.486C302.623 298.642 301.637 301.28 297.427 301.28H52.576ZM278.117 308.693C281.274 306.964 284.19 304.265 285.318 303.019H326.334C327.915 303.309 331.17 306.294 332.914 308.693H278.117ZM341.089 305.579C341.089 307.297 339.99 308.689 338.638 308.689H334.757C333.895 307.161 331.801 304.702 329.727 303.016H333.131C334.608 303.549 338.567 305.489 338.567 305.489C338.567 305.489 337.04 300.464 336.62 298.588V294.271C337.947 296.906 339.886 299.558 341.089 300.653V305.579ZM341.089 298.312C339.201 296.1 336.848 291.97 336.62 289.962V237.91C337.601 236.478 339.728 232.78 341.089 228.771V298.312Z" fill="url(#paint7_linear_4_1045)"/>
<path d="M327.935 28.0054L321.589 32.4403C320.695 35.1105 320.763 37.1043 318.266 40.2756C320.766 37.1043 322.335 37.1937 324.438 36.0591L327.935 28.0054Z" fill="url(#paint8_linear_4_1045)"/>
</g>
<defs>
<linearGradient id="paint0_linear_4_1045" x1="8.0625" y1="179.343" x2="8.91073" y2="179.343" gradientUnits="userSpaceOnUse">
<stop stop-color="#BAA074"/>
<stop offset="0.5" stop-color="#C3B58D"/>
<stop offset="1" stop-color="#D7C397"/>
</linearGradient>
<linearGradient id="paint1_linear_4_1045" x1="22.0654" y1="285.863" x2="31.7341" y2="285.863" gradientUnits="userSpaceOnUse">
<stop stop-color="#BAA074"/>
<stop offset="0.5" stop-color="#C3B58D"/>
<stop offset="1" stop-color="#D7C397"/>
</linearGradient>
<linearGradient id="paint2_linear_4_1045" x1="8.0625" y1="140.657" x2="8.91073" y2="140.657" gradientUnits="userSpaceOnUse">
<stop stop-color="#BAA074"/>
<stop offset="0.5" stop-color="#C3B58D"/>
<stop offset="1" stop-color="#D7C397"/>
</linearGradient>
<linearGradient id="paint3_linear_4_1045" x1="22.0654" y1="34.1405" x2="31.7341" y2="34.1405" gradientUnits="userSpaceOnUse">
<stop stop-color="#BAA074"/>
<stop offset="0.5" stop-color="#C3B58D"/>
<stop offset="1" stop-color="#D7C397"/>
</linearGradient>
<linearGradient id="paint4_linear_4_1045" x1="341.089" y1="179.343" x2="341.938" y2="179.343" gradientUnits="userSpaceOnUse">
<stop stop-color="#BAA074"/>
<stop offset="0.5" stop-color="#C3B58D"/>
<stop offset="1" stop-color="#D7C397"/>
</linearGradient>
<linearGradient id="paint5_linear_4_1045" x1="318.266" y1="285.859" x2="327.935" y2="285.859" gradientUnits="userSpaceOnUse">
<stop stop-color="#BAA074"/>
<stop offset="0.5" stop-color="#C3B58D"/>
<stop offset="1" stop-color="#D7C397"/>
</linearGradient>
<linearGradient id="paint6_linear_4_1045" x1="341.089" y1="140.657" x2="341.938" y2="140.657" gradientUnits="userSpaceOnUse">
<stop stop-color="#BAA074"/>
<stop offset="0.5" stop-color="#C3B58D"/>
<stop offset="1" stop-color="#D7C397"/>
</linearGradient>
<linearGradient id="paint7_linear_4_1045" x1="-0.00292969" y1="160" x2="350.003" y2="160" gradientUnits="userSpaceOnUse">
<stop stop-color="#BAA074"/>
<stop offset="0.5" stop-color="#C3B58D"/>
<stop offset="1" stop-color="#D7C397"/>
</linearGradient>
<linearGradient id="paint8_linear_4_1045" x1="318.266" y1="34.1405" x2="327.935" y2="34.1405" gradientUnits="userSpaceOnUse">
<stop stop-color="#BAA074"/>
<stop offset="0.5" stop-color="#C3B58D"/>
<stop offset="1" stop-color="#D7C397"/>
</linearGradient>
<clipPath id="clip0_4_1045">
<rect width="350" height="320" fill="white"/>
</clipPath>
</defs>
</svg>
