<svg width="1745" height="3000" viewBox="0 0 1745 3000" fill="none" xmlns="http://www.w3.org/2000/svg">
<path fill-rule="evenodd" clip-rule="evenodd" d="M1220.97 216.115C1220.97 216.115 1106.28 468.432 1412.12 713.102C1717.95 957.773 1523.75 1288.95 1520.69 1283.49C1517.63 1278.03 1542.1 1109.82 1367.77 995.132C1193.45 880.443 1094.05 674.237 1094.05 570.016C1094.05 466.031 1090.99 363.72 1220.97 216.115Z" fill="url(#paint0_linear_142_987)"/>
<path fill-rule="evenodd" clip-rule="evenodd" d="M1195.39 246.842C1195.39 246.842 1000.62 627.491 1303.94 861.104C1607.25 1094.72 1523.84 1289.67 1520.75 1284.39C1517.66 1279.11 1541.98 1108.63 1366.1 1005.32C1189.86 901.801 1102.91 703.813 1090.92 594.772C1088.81 575.664 1064.17 383.884 1193.33 249.253" fill="url(#paint1_linear_142_987)"/>
<path fill-rule="evenodd" clip-rule="evenodd" d="M891.9 0C891.9 0 142.582 509.359 833.164 1103.96C1440.74 1627.09 1769.62 1720.68 1743.16 2261.31C1715.76 2821.13 969.39 3223.35 431.796 2862.56C102.685 2641.68 21.5948 2349.53 4.90866 2187.95C-5.66155 2085.59 3.15782 2146.69 9.72625 2184.42C39.9982 2358.31 174.5 2640.82 480.778 2758.62C853.511 2901.98 1227.79 2757.79 1309.87 2565.08C1398.77 2356.38 1176.18 2038.65 655.198 1704.91C121.504 1363.03 146.272 914.797 172.555 761.879C198.838 608.959 234.678 396.486 559.625 171.706C790.822 11.7777 891.902 0.00440508 891.902 0.00440508L891.9 0Z" fill="url(#paint2_linear_142_987)"/>
<path fill-rule="evenodd" clip-rule="evenodd" d="M478.545 279.552C478.545 279.552 -120.551 884.916 599.21 1443.84C1001.89 1756.54 1156.76 1843.48 1266.99 1952.86C1310.08 1995.62 1373.71 2070.7 1402.85 2163.3C1438.36 2276.17 1439.28 2325.75 1402.85 2411.63C1379.9 2465.72 1291.55 2601.92 1291.55 2601.92C1291.55 2601.92 1304.86 2576.83 1309.86 2565.08C1398.76 2356.38 1176.18 2038.65 655.192 1704.91C121.498 1363.03 146.266 914.796 172.549 761.878C198.832 608.959 234.13 369.186 569.177 159.757C622.242 126.588 655.193 114.674 655.193 114.674L478.547 279.556L478.545 279.552Z" fill="url(#paint3_linear_142_987)"/>
<defs>
<linearGradient id="paint0_linear_142_987" x1="1094.04" y1="749.837" x2="1584.27" y2="749.837" gradientUnits="userSpaceOnUse">
<stop stop-color="#BAA074"/>
<stop offset="0.5" stop-color="#C3B58D"/>
<stop offset="1" stop-color="#D7C397"/>
</linearGradient>
<linearGradient id="paint1_linear_142_987" x1="1087.7" y1="765.667" x2="1533.52" y2="765.667" gradientUnits="userSpaceOnUse">
<stop stop-color="#BAA074"/>
<stop offset="0.5" stop-color="#C3B58D"/>
<stop offset="1" stop-color="#D7C397"/>
</linearGradient>
<linearGradient id="paint2_linear_142_987" x1="0" y1="1499.95" x2="1744.64" y2="1499.95" gradientUnits="userSpaceOnUse">
<stop stop-color="#BAA074"/>
<stop offset="0.5" stop-color="#C3B58D"/>
<stop offset="1" stop-color="#D7C397"/>
</linearGradient>
<linearGradient id="paint3_linear_142_987" x1="161.342" y1="1358.3" x2="1429.83" y2="1358.3" gradientUnits="userSpaceOnUse">
<stop stop-color="#BAA074"/>
<stop offset="0.5" stop-color="#C3B58D"/>
<stop offset="1" stop-color="#D7C397"/>
</linearGradient>
</defs>
</svg>
