<svg width="1745" height="3002" viewBox="0 0 1745 3002" fill="none" xmlns="http://www.w3.org/2000/svg">
<path fill-rule="evenodd" clip-rule="evenodd" d="M1220.98 216.229C1220.98 216.229 1106.3 468.663 1412.13 713.448C1717.97 958.233 1523.76 1289.57 1520.69 1284.1C1517.64 1278.64 1542.11 1110.35 1367.78 995.61C1193.46 880.866 1094.06 674.564 1094.06 570.295C1094.06 466.262 1091 363.904 1220.98 216.23V216.229Z" fill="url(#paint0_linear_139_924)"/>
<path fill-rule="evenodd" clip-rule="evenodd" d="M1195.39 246.973C1195.39 246.973 1000.62 627.799 1303.94 861.522C1607.25 1095.24 1523.83 1290.29 1520.75 1285C1517.67 1279.72 1541.98 1109.16 1366.1 1005.81C1189.86 902.238 1102.91 704.159 1090.92 595.069C1088.81 575.95 1064.17 384.082 1193.33 249.389" fill="url(#paint1_linear_139_924)"/>
<path fill-rule="evenodd" clip-rule="evenodd" d="M891.903 0.0273438C891.903 0.0273438 142.586 509.624 833.168 1104.5C1440.74 1627.88 1769.61 1721.51 1743.16 2262.39C1715.76 2822.47 969.391 3224.88 431.797 2863.92C102.686 2642.95 21.5964 2350.66 4.90864 2189C-5.66151 2086.59 3.15775 2147.72 9.72631 2185.47C39.998 2359.43 174.501 2642.09 480.777 2759.94C853.509 2903.37 1227.79 2759.11 1309.87 2566.31C1398.77 2357.51 1176.18 2039.63 655.197 1705.74C121.502 1363.7 146.272 915.253 172.556 762.264C198.837 609.272 234.678 396.7 559.625 171.817C790.821 11.813 891.902 0.0341333 891.902 0.0341333L891.903 0.0273438Z" fill="url(#paint2_linear_139_924)"/>
<path fill-rule="evenodd" clip-rule="evenodd" d="M478.553 279.71C478.553 279.71 -120.544 885.355 599.218 1444.53C1001.9 1757.39 1156.77 1844.37 1267 1953.79C1310.09 1996.58 1358.96 2079.14 1376.44 2171.79C1413.22 2366.71 1318.56 2551.99 1309.87 2566.31C1398.77 2357.5 1176.18 2039.62 655.2 1705.73C121.508 1363.7 146.275 915.251 172.558 762.262C198.842 609.272 234.139 369.388 569.186 159.859C622.25 126.675 651.363 111.588 651.363 111.588L478.553 279.71Z" fill="url(#paint3_linear_139_924)"/>
<defs>
<linearGradient id="paint0_linear_139_924" x1="1339.17" y1="216.229" x2="1339.17" y2="1284.17" gradientUnits="userSpaceOnUse">
<stop stop-color="white"/>
<stop offset="0.75" stop-color="#FFDAAF"/>
<stop offset="1" stop-color="#FFDAAF"/>
</linearGradient>
<linearGradient id="paint1_linear_139_924" x1="1310.61" y1="246.973" x2="1310.61" y2="1285.11" gradientUnits="userSpaceOnUse">
<stop stop-color="#FF8C05"/>
<stop offset="1" stop-color="#995403"/>
</linearGradient>
<linearGradient id="paint2_linear_139_924" x1="872.32" y1="0.0273438" x2="872.32" y2="3001.33" gradientUnits="userSpaceOnUse">
<stop stop-color="white"/>
<stop offset="0.5" stop-color="#FFD4A2"/>
<stop offset="1" stop-color="#FF8A00"/>
</linearGradient>
<linearGradient id="paint3_linear_139_924" x1="769.651" y1="111.588" x2="769.651" y2="2566.31" gradientUnits="userSpaceOnUse">
<stop stop-color="#FF8A00"/>
<stop offset="1" stop-color="#7B4300"/>
</linearGradient>
</defs>
</svg>
