<svg width="1746" height="3002" viewBox="0 0 1746 3002" fill="none" xmlns="http://www.w3.org/2000/svg">
<path fill-rule="evenodd" clip-rule="evenodd" d="M1221.83 216.211C1221.83 216.211 1107.15 468.62 1412.98 713.378C1718.81 958.138 1524.61 1289.44 1521.55 1283.98C1518.49 1278.51 1542.96 1110.24 1368.63 995.511C1194.31 880.78 1094.91 674.499 1094.91 570.24C1094.91 466.217 1091.86 363.87 1221.83 216.211Z" fill="white"/>
<path fill-rule="evenodd" clip-rule="evenodd" d="M1196.26 246.947C1196.26 246.947 1001.49 627.734 1304.8 861.432C1608.11 1095.13 1524.7 1290.15 1521.61 1284.87C1518.52 1279.59 1542.84 1109.04 1366.96 1005.7C1190.72 902.144 1103.78 704.084 1091.78 595.004C1089.68 575.888 1065.03 384.039 1194.19 249.359" fill="white"/>
<path fill-rule="evenodd" clip-rule="evenodd" d="M892.763 0.015625C892.763 0.015625 143.445 509.56 834.028 1104.37C1441.6 1627.7 1770.48 1721.32 1744.02 2262.14C1716.63 2822.17 970.253 3224.54 432.66 2863.61C103.548 2642.66 22.458 2350.4 5.77194 2188.76C-4.79827 2086.36 4.02111 2147.49 10.5895 2185.23C40.8615 2359.18 175.364 2641.8 481.642 2759.64C854.374 2903.05 1228.65 2758.81 1310.73 2566.03C1399.63 2357.25 1177.04 2039.4 656.061 1705.55C122.368 1363.54 147.135 915.144 173.419 762.171C199.701 609.196 235.541 396.645 560.488 171.784C791.685 11.7976 892.765 0.0200317 892.765 0.0200317L892.763 0.015625Z" fill="white"/>
<path fill-rule="evenodd" clip-rule="evenodd" d="M479.412 279.669C479.412 279.669 -119.685 885.252 600.077 1444.38C1002.76 1757.19 1157.63 1844.16 1267.86 1953.58C1310.95 1996.36 1374.57 2071.47 1403.71 2164.1C1439.23 2277.01 1440.14 2326.61 1403.71 2412.52C1380.76 2466.63 1292.41 2602.88 1292.41 2602.88C1292.41 2602.88 1305.73 2577.78 1310.73 2566.03C1399.63 2357.25 1177.04 2039.4 656.058 1705.55C122.365 1363.54 147.132 915.143 173.415 762.17C199.698 609.195 234.996 369.335 570.044 159.83C623.108 126.649 656.059 114.73 656.059 114.73L479.413 279.673L479.412 279.669Z" fill="white"/>
</svg>
